<?xml version="1.0" encoding="UTF-8"?>
<svg id="Layer_1" xmlns="http://www.w3.org/2000/svg" viewBox="0 0 1026.51 221.39">
  <defs>
    <style>
      .cls-1 {
        fill: #fff;
      }

      .cls-2 {
        fill: #1a2c57;
      }
    </style>
  </defs>
  <rect class="cls-1" width="1026.51" height="221.39"/>
  <rect class="cls-1" x="22.36" y="22.48" width="981.78" height="176.42"/>
  <rect class="cls-2" x="514.04" y="18.47" width="495.31" height="184.44"/>
  <g>
    <polygon class="cls-2" points="151.16 64.54 107.59 64.54 88.52 64.54 44.95 64.54 44.95 85.73 87.54 85.73 87.54 156.7 108.65 156.7 108.65 85.73 151.16 85.73 151.16 64.54"/>
    <path class="cls-1" d="M667.38,85.8h67.77v-21.25h-68.03c-14.13,0-25.58,11.45-25.58,25.58v41.15c0,14.13,11.45,25.58,25.58,25.58h68.03v-21.12h-68.06c-3.99,0-6.87-3.67-6.87-7.19h0c0-3.97,3.21-7.18,7.18-7.18h67.75v-21.13h-67.82c-3.93,0-7.11-3.18-7.11-7.11v-.27c0-3,2.5-7.06,7.16-7.06Z"/>
    <path class="cls-2" d="M319.04,85.8h67.77v-21.25h-68.03c-14.13,0-25.58,11.45-25.58,25.58v41.15c0,14.13,11.45,25.58,25.58,25.58h68.03v-21.12h-68.06c-3.99,0-6.87-3.67-6.87-7.19h0c0-3.97,3.21-7.18,7.18-7.18h67.75v-21.13h-67.82c-3.93,0-7.11-3.18-7.11-7.11v-.27c0-3,2.5-7.06,7.16-7.06Z"/>
    <path class="cls-2" d="M440.16,85.55h63.22v-21.01h-68.89c-14.38,0-26.03,12.24-26.03,27.33v37.23c0,15.1,11.64,27.67,26.02,27.67h68.9v-21.28h-63.4c-5.24,0-10.29-4.94-10.29-10.82v-28.57c0-5.66,4.22-10.56,10.47-10.56Z"/>
    <path class="cls-1" d="M556.71,85.55h63.22v-21.01h-68.89c-14.38,0-26.03,12.24-26.03,27.33v37.23c0,15.1,11.64,27.67,26.02,27.67h68.9v-21.28h-63.4c-5.24,0-10.29-4.94-10.29-10.82v-28.57c0-5.66,4.22-10.56,10.47-10.56Z"/>
    <polygon class="cls-1" points="983.64 64.54 940.07 64.54 921 64.54 877.43 64.54 877.43 85.73 920.02 85.73 920.02 156.49 941.13 156.49 941.13 85.73 983.64 85.73 983.64 64.54"/>
    <path class="cls-2" d="M271.67,86.42c0-12-7.8-21.89-20.34-21.89h-78.54v.18h0v91.92h21.12v-35.46h49.26c4.01,0,7.08,3.25,7.08,7.27v28.34h21.42v-28.73c0-5.48-2.95-11.25-6.57-14.7,4.05-4.23,6.57-9.85,6.57-16.29v-10.64ZM193.92,100.06v-14.43h49.12c.17,0,1.15,0,1.32.02,7.84.61,8.96,11.69,1.46,14.05-.72.23-2.2.36-2.79.36h-49.12Z"/>
    <path class="cls-1" d="M855.91,86.42c0-12-7.8-21.89-20.34-21.89h-78.54v.18h0v91.92h21.12v-35.46h49.26c4.01,0,7.08,3.25,7.08,7.27v28.34h21.42v-28.73c0-5.48-2.95-11.25-6.57-14.7,4.05-4.23,6.57-9.85,6.57-16.29v-10.64ZM778.16,100.06v-14.43h49.12c.17,0,1.15,0,1.32.02,7.84.61,8.96,11.69,1.46,14.05-.72.23-2.2.36-2.79.36h-49.12Z"/>
  </g>
</svg>